{
    "asset" : {
        "generator" : "Khronos glTF Blender I/O v3.3.27",
        "version" : "2.0"
    },
    "scene" : 0,
    "scenes" : [
        {
            "name" : "Scene",
            "nodes" : [
                0,
                1,
                2,
                3,
                4,
                5,
                6,
                7,
                8
            ]
        }
    ],
    "nodes" : [
        {
            "mesh" : 0,
            "name" : "Cube",
            "scale" : [
                1,
                0.1317368745803833,
                1
            ]
        },
        {
            "name" : "BezierCircle",
            "translation" : [
                0.48411035537719727,
                0.7033146619796753,
                1.0011234283447266
            ]
        },
        {
            "mesh" : 1,
            "name" : "Circle",
            "scale" : [
                0.20592939853668213,
                0.7770810723304749,
                0.33214783668518066
            ],
            "translation" : [
                0,
                7.335155963897705,
                0
            ]
        },
        {
            "name" : "BezierCircle.001",
            "translation" : [
                -0.46221303939819336,
                -1.6860694885253906,
                0.01997232437133789
            ]
        },
        {
            "name" : "BezierCurve",
            "translation" : [
                4.1697734559420496e-05,
                -0.005426343064755201,
                0.000995046691969037
            ]
        },
        {
            "name" : "NurbsPath",
            "translation" : [
                0,
                7.179999828338623,
                0
            ]
        },
        {
            "name" : "BezierCircle.002",
            "scale" : [
                0.4360201954841614,
                0.4360201954841614,
                0.4360201954841614
            ],
            "translation" : [
                0.8149057626724243,
                -1.6860694885253906,
                0.01997232437133789
            ]
        },
        {
            "name" : "NurbsPath.001",
            "translation" : [
                0,
                6.549999713897705,
                -0.022154612466692924
            ]
        },
        {
            "mesh" : 2,
            "name" : "Circle.001"
        }
    ],
    "materials" : [
        {
            "doubleSided" : true,
            "name" : "Material",
            "pbrMetallicRoughness" : {
                "baseColorFactor" : [
                    0.024157578125596046,
                    0.16826939582824707,
                    0.025186870247125626,
                    1
                ],
                "metallicFactor" : 0,
                "roughnessFactor" : 0.4000000059604645
            }
        },
        {
            "doubleSided" : true,
            "name" : "Material.003",
            "pbrMetallicRoughness" : {
                "baseColorFactor" : [
                    0.024157578125596046,
                    0.16826939582824707,
                    0.025186870247125626,
                    1
                ],
                "metallicFactor" : 0,
                "roughnessFactor" : 0.5
            }
        },
        {
            "doubleSided" : true,
            "name" : "Material.002",
            "pbrMetallicRoughness" : {
                "baseColorFactor" : [
                    0.024157578125596046,
                    0.16826939582824707,
                    0.025186870247125626,
                    1
                ],
                "metallicFactor" : 0,
                "roughnessFactor" : 0.5
            }
        }
    ],
    "meshes" : [
        {
            "name" : "Cube",
            "primitives" : [
                {
                    "attributes" : {
                        "POSITION" : 0,
                        "NORMAL" : 1,
                        "TEXCOORD_0" : 2
                    },
                    "indices" : 3,
                    "material" : 0
                }
            ]
        },
        {
            "name" : "Circle.001",
            "primitives" : [
                {
                    "attributes" : {
                        "POSITION" : 4,
                        "NORMAL" : 5,
                        "TEXCOORD_0" : 6
                    },
                    "indices" : 7,
                    "material" : 1
                }
            ]
        },
        {
            "name" : "Circle",
            "primitives" : [
                {
                    "attributes" : {
                        "POSITION" : 8,
                        "NORMAL" : 9,
                        "TEXCOORD_0" : 10
                    },
                    "indices" : 11,
                    "material" : 2
                }
            ]
        }
    ],
    "accessors" : [
        {
            "bufferView" : 0,
            "componentType" : 5126,
            "count" : 1649,
            "max" : [
                0.7379200458526611,
                57.18104553222656,
                0.7379204034805298
            ],
            "min" : [
                -0.7379205226898193,
                1.552455186843872,
                -0.7379201650619507
            ],
            "type" : "VEC3"
        },
        {
            "bufferView" : 1,
            "componentType" : 5126,
            "count" : 1649,
            "type" : "VEC3"
        },
        {
            "bufferView" : 2,
            "componentType" : 5126,
            "count" : 1649,
            "type" : "VEC2"
        },
        {
            "bufferView" : 3,
            "componentType" : 5123,
            "count" : 7872,
            "type" : "SCALAR"
        },
        {
            "bufferView" : 4,
            "componentType" : 5126,
            "count" : 32,
            "max" : [
                6.1335062980651855,
                -0.7795711159706116,
                0.1674010157585144
            ],
            "min" : [
                -6.1335015296936035,
                -0.9424664378166199,
                -0.16740012168884277
            ],
            "type" : "VEC3"
        },
        {
            "bufferView" : 5,
            "componentType" : 5126,
            "count" : 32,
            "type" : "VEC3"
        },
        {
            "bufferView" : 6,
            "componentType" : 5126,
            "count" : 32,
            "type" : "VEC2"
        },
        {
            "bufferView" : 7,
            "componentType" : 5123,
            "count" : 180,
            "type" : "SCALAR"
        },
        {
            "bufferView" : 8,
            "componentType" : 5126,
            "count" : 1098,
            "max" : [
                -1.0431097745895386,
                7.643768310546875,
                0.25315532088279724
            ],
            "min" : [
                -1.4821161031723022,
                6.340545177459717,
                -0.25243040919303894
            ],
            "type" : "VEC3"
        },
        {
            "bufferView" : 9,
            "componentType" : 5126,
            "count" : 1098,
            "type" : "VEC3"
        },
        {
            "bufferView" : 10,
            "componentType" : 5126,
            "count" : 1098,
            "type" : "VEC2"
        },
        {
            "bufferView" : 11,
            "componentType" : 5123,
            "count" : 5904,
            "type" : "SCALAR"
        }
    ],
    "bufferViews" : [
        {
            "buffer" : 0,
            "byteLength" : 19788,
            "byteOffset" : 0,
            "target" : 34962
        },
        {
            "buffer" : 0,
            "byteLength" : 19788,
            "byteOffset" : 19788,
            "target" : 34962
        },
        {
            "buffer" : 0,
            "byteLength" : 13192,
            "byteOffset" : 39576,
            "target" : 34962
        },
        {
            "buffer" : 0,
            "byteLength" : 15744,
            "byteOffset" : 52768,
            "target" : 34963
        },
        {
            "buffer" : 0,
            "byteLength" : 384,
            "byteOffset" : 68512,
            "target" : 34962
        },
        {
            "buffer" : 0,
            "byteLength" : 384,
            "byteOffset" : 68896,
            "target" : 34962
        },
        {
            "buffer" : 0,
            "byteLength" : 256,
            "byteOffset" : 69280,
            "target" : 34962
        },
        {
            "buffer" : 0,
            "byteLength" : 360,
            "byteOffset" : 69536,
            "target" : 34963
        },
        {
            "buffer" : 0,
            "byteLength" : 13176,
            "byteOffset" : 69896,
            "target" : 34962
        },
        {
            "buffer" : 0,
            "byteLength" : 13176,
            "byteOffset" : 83072,
            "target" : 34962
        },
        {
            "buffer" : 0,
            "byteLength" : 8784,
            "byteOffset" : 96248,
            "target" : 34962
        },
        {
            "buffer" : 0,
            "byteLength" : 11808,
            "byteOffset" : 105032,
            "target" : 34963
        }
    ],
    "buffers" : [
        {
            "byteLength" : 116840,
            "uri" : "data:application/octet-stream;base64,"
        }
    ]
}
